<?xml version="1.0" standalone="no"?>
<!DOCTYPE svg PUBLIC "-//W3C//DTD SVG 20010904//EN"
 "http://www.w3.org/TR/2001/REC-SVG-20010904/DTD/svg10.dtd">
<svg version="1.0" xmlns="http://www.w3.org/2000/svg"
 width="1280.000000pt" height="716.000000pt" viewBox="0 0 1280.000000 716.000000"
 preserveAspectRatio="xMidYMid meet">
<metadata>
Created by potrace 1.15, written by Peter Selinger 2001-2017
</metadata>
<g transform="translate(0.000000,716.000000) scale(0.100000,-0.100000)"
fill="#000000" stroke="none">
<path d="M8699 7107 c-72 -24 -116 -61 -155 -134 -16 -28 -42 -70 -58 -92 -16
-23 -30 -52 -31 -65 -2 -13 -6 -33 -10 -45 -11 -36 13 -127 48 -183 38 -58
102 -117 161 -144 20 -10 36 -21 36 -24 0 -14 -92 -72 -99 -63 -29 46 -57 83
-62 83 -9 0 -49 -94 -49 -114 0 -30 -19 -25 -54 14 -31 35 -35 45 -32 82 2 26
-3 54 -13 71 -19 33 -27 34 -35 3 -7 -27 5 -59 41 -118 29 -48 29 -50 -4 -37
-15 6 -41 9 -58 8 -16 -1 -37 1 -46 5 -9 4 -22 6 -30 4 -9 -2 -15 13 -20 52
-7 69 -21 95 -71 142 l-39 37 4 -77 c2 -42 6 -85 8 -96 4 -19 2 -21 -76 -57
-107 -48 -117 -55 -129 -77 l-12 -24 -25 26 c-32 35 -41 33 -34 -8 6 -32 5
-34 -24 -41 -17 -4 -45 -4 -61 0 -36 8 -60 -7 -53 -33 3 -11 -7 -23 -29 -35
-18 -9 -35 -17 -38 -16 -3 1 -29 -13 -58 -30 -29 -17 -56 -31 -60 -31 -5 0
-23 -16 -42 -35 -19 -19 -39 -35 -45 -35 -6 0 -23 -23 -38 -52 -29 -56 -32
-53 -42 37 -11 88 -7 113 19 148 48 65 59 100 73 244 9 97 -25 155 -131 222
-115 72 -155 80 -451 83 -278 3 -398 -8 -465 -42 -26 -13 -53 -18 -91 -16 -30
2 -74 -3 -99 -10 -25 -8 -65 -14 -90 -14 -56 0 -81 -17 -114 -76 -49 -89 -47
-162 5 -181 34 -13 59 -5 122 39 27 19 27 19 56 -1 38 -27 79 -27 108 1 20 19
27 20 59 10 42 -13 58 -8 102 30 36 31 73 36 92 13 16 -19 39 -19 61 1 10 9
37 17 61 17 24 1 49 8 57 15 11 11 15 11 22 1 6 -11 17 -8 48 9 23 13 45 21
50 18 5 -3 23 2 42 11 29 14 44 15 135 4 117 -13 158 -28 208 -71 48 -42 60
-84 47 -156 -19 -100 -64 -130 -252 -168 -111 -23 -178 -28 -274 -24 -16 1
-102 -11 -190 -27 -88 -15 -191 -31 -230 -36 -38 -4 -92 -12 -120 -18 -50 -10
-72 -13 -193 -27 -81 -9 -148 -51 -170 -107 -17 -45 -11 -75 25 -111 22 -22
34 -26 70 -24 24 1 47 6 49 10 3 5 25 6 49 3 24 -4 68 -1 99 6 42 9 62 9 80 1
19 -9 31 -8 54 4 52 26 193 57 234 51 21 -3 36 -2 33 3 -4 7 38 21 75 25 8 1
24 5 35 10 67 28 114 50 145 70 19 12 42 22 50 22 8 0 26 3 40 7 19 6 21 5 10
-3 -12 -9 -11 -11 8 -11 13 0 21 4 18 8 -3 5 9 9 27 9 18 1 68 4 113 7 l81 6
11 -37 c6 -21 18 -83 27 -138 9 -55 30 -174 47 -265 28 -149 33 -179 37 -217
0 -6 7 -18 14 -25 18 -17 28 -58 15 -58 -12 0 -8 -34 22 -175 27 -131 27 -130
10 -131 -8 0 -40 -4 -70 -8 -89 -12 -120 -15 -210 -21 -47 -3 -96 -8 -110 -11
-14 -2 -56 -6 -95 -8 -38 -2 -97 -8 -130 -14 -33 -6 -67 -10 -75 -10 -29 0
-216 -22 -275 -32 -58 -10 -178 -24 -295 -35 -30 -3 -89 -10 -130 -15 -326
-43 -467 -63 -543 -76 -49 -8 -143 -21 -210 -29 -67 -7 -133 -16 -147 -19 -31
-6 -271 -44 -360 -56 -36 -5 -146 -25 -245 -45 -99 -19 -207 -40 -240 -46 -33
-6 -79 -15 -102 -20 -23 -5 -46 -9 -50 -9 -12 0 -46 60 -39 67 3 4 2 11 -2 17
-5 6 -19 38 -32 71 -12 33 -41 100 -63 149 -43 97 -61 156 -45 156 5 0 6 5 2
12 -5 8 0 9 14 6 14 -4 20 -2 15 5 -4 6 1 8 15 5 15 -4 19 -2 15 9 -3 8 -12
12 -20 9 -8 -4 -11 -1 -7 5 3 6 17 8 31 4 16 -4 22 -2 18 5 -4 6 7 10 29 10
26 0 36 4 36 15 0 9 7 18 15 21 8 4 15 12 15 20 0 8 19 26 43 41 23 14 95 72
161 127 172 147 164 139 144 132 -28 -8 -21 2 11 18 51 27 130 147 86 130 -11
-5 -12 0 -5 25 4 17 11 35 14 40 8 13 -42 71 -61 71 -8 0 -38 -11 -66 -25 -44
-23 -109 -38 -157 -37 -21 0 -93 -20 -105 -29 -6 -5 -62 -17 -125 -29 -185
-34 -210 -38 -215 -30 -3 5 -22 4 -42 0 -25 -6 -40 -5 -44 2 -4 6 -17 8 -29 5
-28 -7 -130 12 -130 25 0 5 -9 6 -20 3 -12 -4 -26 -2 -33 3 -30 26 -225 38
-327 22 -123 -20 -302 -92 -344 -139 -25 -27 -48 -86 -50 -125 -1 -26 8 -36
59 -72 53 -38 273 -154 291 -154 4 0 15 -6 23 -14 22 -18 293 -87 362 -91 31
-2 74 -8 96 -14 36 -10 43 -17 76 -86 21 -41 37 -77 37 -80 0 -2 16 -40 36
-82 58 -127 64 -141 64 -147 0 -3 20 -48 44 -99 51 -107 63 -146 49 -156 -6
-3 -48 -78 -93 -166 -45 -88 -86 -164 -91 -169 -5 -6 -9 -17 -9 -25 0 -9 -7
-24 -14 -34 -13 -17 -17 -17 -81 13 -124 58 -404 103 -635 102 -247 0 -576
-50 -785 -118 -106 -35 -247 -103 -313 -151 -169 -123 -244 -183 -276 -223
-20 -25 -58 -69 -84 -99 -56 -64 -118 -146 -167 -220 -112 -167 -209 -437
-243 -671 -43 -301 -54 -537 -32 -661 19 -102 75 -287 120 -394 23 -55 57
-135 76 -179 l33 -79 -32 -38 c-18 -21 -35 -39 -39 -39 -5 0 -8 -7 -8 -15 0
-20 31 -19 76 2 l36 18 23 -30 c13 -16 34 -49 47 -74 13 -26 27 -50 31 -56 4
-5 27 -40 51 -76 l42 -66 -18 -179 c-9 -99 -25 -213 -33 -254 -9 -41 -27 -138
-41 -215 -14 -77 -27 -141 -29 -143 -4 -4 -23 137 -35 263 -6 61 -14 229 -19
374 -7 203 -12 266 -22 272 -15 9 -18 -10 -39 -284 -8 -101 -27 -221 -60 -378
-27 -127 -50 -233 -53 -235 -6 -6 -25 148 -38 307 -22 282 -76 632 -92 589 -3
-8 -15 -96 -27 -195 -12 -99 -30 -220 -39 -269 l-17 -90 -28 49 c-48 87 -66
137 -66 184 0 55 -30 390 -37 411 -9 26 -20 -18 -27 -110 -4 -47 -13 -110 -20
-140 l-13 -55 -41 87 c-22 48 -61 146 -86 218 -55 158 -61 170 -86 170 -11 0
-20 -3 -20 -6 0 -42 113 -556 146 -668 l45 -148 -15 -77 c-8 -42 -22 -114 -30
-161 -18 -98 -35 -164 -42 -158 -6 7 -32 342 -39 513 -6 144 -20 303 -31 354
-5 21 -7 22 -20 9 -15 -14 -27 -76 -59 -283 -8 -55 -19 -122 -24 -150 -12 -70
-95 -375 -101 -375 -7 0 -46 155 -65 260 -18 103 -55 220 -70 220 -6 0 -10
-53 -11 -148 -1 -146 -1 -148 -46 -285 l-46 -137 4467 4 c3432 2 4486 6 4551
15 110 16 141 16 220 1 51 -10 410 -14 1642 -17 l1577 -3 20 38 c23 46 76 329
92 500 18 182 3 181 -64 -8 -55 -153 -146 -382 -157 -393 -7 -8 -10 27 -26
279 l-6 100 27 18 c22 14 24 20 14 32 -7 8 -18 13 -26 10 -10 -4 -13 10 -13
63 0 68 0 69 32 82 17 7 26 15 20 17 -6 2 -20 -1 -30 -7 -18 -9 -20 -5 -25 60
-5 54 -2 82 14 126 12 36 22 99 26 172 5 97 10 121 28 146 12 17 34 60 49 96
24 59 48 103 128 233 28 44 29 76 3 76 -16 0 -86 -77 -133 -147 -19 -29 -38
-53 -43 -53 -18 0 -22 73 -6 104 9 17 19 51 22 76 4 25 18 72 31 106 29 73 30
84 5 84 -20 0 -26 19 -34 125 -2 22 -4 -8 -5 -66 -2 -94 -4 -108 -23 -125
l-22 -19 6 230 c3 137 2 216 -3 195 -7 -27 -8 -23 -3 20 3 30 7 87 9 125 3 77
17 156 33 195 l10 25 7 -22 c8 -30 24 -29 24 0 0 13 5 28 12 35 7 7 11 30 10
51 -2 22 2 49 8 61 5 11 15 29 20 40 6 11 10 25 10 31 0 6 6 25 14 42 8 18 17
56 20 86 l5 53 -27 -6 c-54 -13 -57 -12 -55 14 7 70 15 91 39 102 14 7 50 46
80 87 45 63 53 80 48 106 -4 22 0 38 16 58 15 19 20 38 18 64 -3 32 -7 38 -28
41 -14 2 -35 8 -47 14 -17 8 -28 7 -55 -9 -30 -18 -33 -23 -30 -64 4 -56 -5
-92 -20 -83 -22 14 -36 -25 -31 -86 4 -41 0 -81 -15 -137 -12 -43 -26 -112
-31 -153 -12 -85 -53 -336 -75 -455 -40 -217 -63 -602 -46 -775 22 -230 24
-330 9 -330 -21 0 -35 12 -52 45 -8 17 -24 41 -36 54 -18 21 -19 26 -7 50 8
14 19 98 26 191 7 91 16 175 21 188 5 13 9 60 9 105 0 45 7 127 15 182 8 55
15 125 14 155 0 51 -1 53 -14 36 -30 -40 -36 -5 -20 105 9 57 25 160 36 229
27 177 34 209 52 223 16 12 22 53 49 312 6 55 12 198 13 318 4 215 22 398 50
502 8 28 23 115 35 195 12 80 26 174 31 210 6 36 11 145 11 242 0 166 1 179
21 205 31 39 68 123 73 163 2 19 5 65 7 101 2 37 7 71 11 78 4 6 -3 15 -18 21
-28 10 -29 8 17 107 7 16 7 30 -1 48 -7 15 -9 37 -6 51 5 19 2 24 -14 24 -11
0 -27 3 -35 6 -10 3 -18 -5 -25 -25 -6 -17 -17 -31 -25 -31 -16 0 -27 -21 -27
-50 0 -9 -6 -23 -14 -30 -21 -17 -10 -37 25 -44 21 -4 29 -11 29 -27 0 -16 -4
-19 -17 -14 -50 20 -56 19 -51 -8 3 -16 0 -31 -8 -38 -20 -17 -17 -39 8 -67
l23 -23 -24 -18 c-15 -12 -23 -27 -22 -47 1 -16 1 -48 1 -71 0 -23 4 -45 10
-48 6 -3 7 -18 4 -32 -5 -19 -2 -30 11 -39 15 -11 18 -26 16 -86 -3 -119 -29
-412 -50 -568 -36 -259 -43 -305 -47 -311 -2 -4 -13 -73 -24 -155 -20 -143
-31 -184 -49 -184 -11 0 -29 -71 -37 -147 -5 -49 -2 -70 14 -106 18 -41 19
-56 12 -174 -8 -113 -55 -406 -79 -488 -5 -16 -17 -86 -26 -155 -10 -69 -20
-129 -23 -135 -3 -5 -9 -97 -12 -205 -6 -189 -7 -197 -35 -252 -28 -55 -55
-76 -55 -43 0 30 32 170 51 225 23 65 24 89 5 104 -12 9 -9 36 20 176 22 105
40 230 49 345 8 99 19 212 24 252 6 39 13 206 16 370 9 517 13 578 41 616 36
49 45 76 50 147 7 91 15 139 25 146 19 11 8 24 -16 18 -25 -6 -25 -6 -21 47 3
30 7 63 8 74 5 35 -30 30 -52 -8 -12 -20 -27 -38 -35 -41 -8 -3 -15 -16 -15
-30 0 -14 -4 -28 -10 -31 -17 -10 -11 -51 10 -70 29 -26 25 -38 -10 -31 -27 5
-30 3 -30 -20 0 -13 -7 -35 -15 -48 -18 -28 -12 -49 21 -71 26 -17 32 -45 10
-45 -8 0 -22 -10 -31 -22 -15 -22 -14 -24 6 -40 12 -10 28 -18 36 -18 12 0 14
-7 9 -32 -4 -18 -11 -130 -16 -248 -5 -118 -13 -314 -19 -435 -5 -121 -17
-269 -26 -328 -16 -98 -20 -108 -37 -104 -19 5 -112 -35 -123 -53 -14 -23 -8
-156 9 -192 17 -35 17 -37 -6 -75 -13 -21 -29 -51 -36 -66 -17 -39 -32 -25
-21 20 4 21 10 97 14 168 9 214 10 217 61 254 43 30 74 74 60 88 -3 4 -22 -1
-41 -10 -57 -27 -62 -20 -19 26 82 88 86 94 76 114 -7 13 -6 24 4 38 21 29 17
37 -18 33 l-33 -3 -3 108 c-2 79 -6 107 -16 107 -15 0 -29 -27 -48 -90 -9 -30
-21 -49 -38 -57 -22 -11 -25 -18 -22 -61 4 -49 -6 -69 -44 -90 -12 -7 -12 -14
2 -56 16 -46 16 -48 -7 -72 l-22 -24 23 -49 c20 -44 22 -59 16 -128 -3 -43
-10 -130 -15 -193 -10 -114 -26 -219 -37 -229 -10 -10 -24 24 -24 60 0 48 -11
99 -20 99 -28 0 -30 -253 -3 -327 19 -50 20 -193 2 -193 -4 0 -16 26 -26 58
-16 50 -18 99 -18 387 0 361 7 427 66 625 46 158 60 230 65 340 5 125 28 349
55 550 44 321 52 630 25 940 l-18 205 21 64 c11 35 21 74 21 85 0 12 7 34 15
50 9 16 13 37 9 45 -12 27 -11 65 2 92 18 36 8 69 -22 69 -30 0 -30 12 -2 50
21 28 21 30 4 49 -11 12 -16 31 -14 48 2 22 -1 29 -19 31 -41 6 -65 -16 -62
-56 4 -78 0 -92 -31 -110 -32 -18 -40 -49 -15 -59 14 -5 14 -8 2 -22 -18 -21
-14 -73 7 -106 17 -25 17 -27 0 -39 -15 -11 -15 -18 -5 -47 6 -18 21 -43 32
-55 19 -21 22 -41 31 -221 5 -109 11 -227 13 -263 12 -238 15 -475 8 -535 -7
-61 -11 -70 -29 -73 -14 -2 -32 8 -51 28 l-30 32 -24 -39 c-21 -33 -24 -50
-24 -128 0 -123 7 -145 46 -145 20 0 38 8 50 23 l18 22 0 -60 c0 -33 -7 -91
-15 -130 -8 -38 -21 -169 -28 -290 -14 -215 -15 -223 -54 -335 -22 -64 -48
-147 -57 -185 -21 -92 -37 -345 -33 -525 2 -90 -1 -146 -7 -149 -5 -2 -27 25
-47 60 -35 61 -37 69 -37 156 -1 77 2 95 18 110 32 31 40 57 55 189 9 71 25
158 36 193 23 71 17 87 -24 71 -38 -14 -49 -4 -42 39 9 56 33 224 50 351 17
135 29 418 31 755 2 233 3 244 33 371 32 133 39 184 24 184 -11 0 -47 -39 -61
-67 -6 -13 -19 -23 -27 -23 -14 0 -16 23 -12 189 2 138 0 193 -9 202 -9 9 -13
5 -18 -17 -4 -16 -13 -51 -21 -78 -8 -27 -19 -88 -24 -135 -16 -131 -15 -130
-61 -85 -21 21 -39 34 -39 29 0 -14 38 -75 62 -101 32 -35 49 -144 42 -266 -6
-97 -5 -112 16 -159 22 -53 22 -55 16 -384 -4 -181 -11 -357 -16 -390 -5 -33
-14 -100 -20 -150 -18 -160 -43 -295 -56 -313 -21 -29 -38 1 -42 77 -3 53 0
75 13 95 16 25 16 27 -5 63 -16 27 -23 57 -26 107 -1 41 -7 72 -15 77 -15 9
-40 0 -56 -20 -11 -14 -12 -13 -13 9 0 15 14 39 37 62 l37 38 -17 35 c-22 46
-21 58 4 81 36 33 49 70 49 144 0 76 -15 118 -51 144 -19 13 -25 13 -50 0 -35
-18 -49 -64 -51 -169 -1 -45 -6 -75 -12 -75 -6 0 -24 -7 -40 -15 -16 -9 -31
-13 -34 -10 -9 9 21 230 35 253 21 33 54 148 48 164 -3 8 -1 27 5 42 7 20 7
32 0 41 -6 7 -8 24 -5 38 5 18 2 28 -11 35 -15 8 -16 13 -5 40 15 37 8 52 -25
52 -23 0 -24 2 -24 70 0 66 -1 70 -22 70 -13 0 -28 -4 -33 -8 -14 -10 -35 -73
-35 -104 0 -14 -8 -32 -18 -42 -29 -25 -47 -88 -33 -114 6 -11 11 -34 11 -50
0 -16 9 -39 20 -52 14 -16 20 -36 18 -62 -1 -27 4 -44 20 -61 13 -13 26 -41
29 -61 9 -55 -18 -306 -35 -322 -18 -18 -80 -18 -115 1 -25 13 -28 12 -40 -5
-14 -24 -33 -26 -41 -4 -12 31 -6 51 20 63 22 10 25 16 21 44 -2 18 1 46 8 64
10 24 11 49 4 100 -5 38 -8 79 -7 92 3 20 -4 26 -40 38 -55 19 -96 5 -111 -38
-11 -32 8 -189 27 -225 12 -22 -15 -174 -37 -209 -11 -19 -12 -19 -6 3 6 22
-8 31 -20 12 -15 -24 -32 -7 -41 43 -10 60 -24 67 -39 17 -5 -19 -18 -47 -28
-62 -18 -26 -18 -28 1 -63 18 -37 18 -38 -3 -99 -12 -33 -30 -77 -40 -96 l-19
-35 -14 45 c-9 28 -17 128 -23 270 -5 124 -13 254 -19 290 -5 36 -15 117 -20
180 -12 133 -35 295 -56 395 -8 39 -19 126 -25 194 l-10 124 27 28 c36 37 60
159 36 183 -13 12 -13 20 -2 45 9 24 10 34 1 45 -7 8 -9 25 -6 39 5 18 2 28
-11 35 -16 9 -16 14 -6 37 11 24 10 27 -8 32 -17 5 -20 14 -20 64 0 45 -4 61
-16 66 -21 8 -31 -10 -45 -80 -10 -48 -17 -60 -37 -68 -25 -10 -26 -25 -7 -85
5 -17 2 -23 -19 -28 -35 -9 -33 -37 4 -64 l30 -23 -21 -29 -22 -28 21 -27 c13
-17 23 -49 27 -90 6 -54 11 -65 25 -65 24 0 28 -14 35 -130 6 -90 17 -170 50
-355 34 -198 63 -483 71 -700 4 -119 13 -227 25 -288 19 -96 25 -198 13 -210
-3 -3 -14 3 -25 14 -25 25 -50 24 -83 -2 l-26 -21 -30 66 c-29 64 -35 100 -24
142 4 15 13 20 40 20 22 0 42 8 56 21 21 21 21 24 9 155 -13 141 -27 180 -70
186 -19 3 -21 9 -21 71 0 93 -21 121 -90 121 -27 0 -61 5 -76 12 -22 10 -25
17 -21 45 5 26 2 35 -14 43 -12 7 -19 21 -19 40 0 16 -7 33 -15 38 -10 5 -17
27 -20 58 -3 35 -10 53 -24 63 -12 7 -21 22 -21 32 0 10 -11 26 -25 35 -14 9
-25 22 -25 28 0 7 -7 21 -15 32 -13 16 -16 17 -25 4 -6 -8 -8 -26 -5 -39 5
-19 3 -22 -11 -17 -31 12 -52 -24 -95 -160 -27 -84 -52 -145 -68 -164 l-26
-30 -71 36 c-39 19 -89 38 -112 41 -37 5 -42 3 -47 -18 -4 -15 4 -51 20 -92
14 -37 25 -70 25 -72 0 -3 -32 -5 -72 -5 -64 0 -75 -3 -100 -27 -41 -39 -39
-94 3 -125 41 -30 76 -98 51 -98 -9 0 -87 98 -118 147 -18 29 -21 45 -16 99
l5 66 -55 51 c-98 93 -410 273 -613 354 -87 35 -262 81 -310 82 -16 0 -46 4
-65 8 -19 4 -98 6 -175 5 -102 -1 -136 1 -125 9 12 9 11 10 -5 4 -11 -4 -60
-8 -110 -10 -49 -1 -124 -7 -165 -13 -179 -26 -206 -30 -219 -34 -18 -4 -35
43 -46 120 -7 52 -6 53 13 43 31 -16 40 -13 17 7 -23 19 -49 72 -36 72 5 0 14
-6 20 -14 41 -49 281 -67 426 -31 11 2 45 10 75 16 30 6 73 17 95 25 23 8 50
14 62 14 34 0 107 37 149 76 21 19 53 43 69 51 48 26 95 64 95 79 0 8 5 14 10
14 6 0 10 6 10 13 0 7 8 22 19 33 45 48 128 186 135 224 1 3 6 23 13 45 7 22
22 74 34 115 12 41 29 100 39 130 10 30 21 80 24 110 3 30 8 69 11 85 2 17 6
51 9 77 2 25 6 50 9 55 2 4 8 62 11 128 8 144 14 181 32 196 8 7 11 21 7 40
-3 16 -1 55 5 87 6 31 13 99 16 150 l5 93 -27 -3 c-19 -2 -29 3 -38 20 -20 39
-57 74 -102 93 -24 10 -50 26 -58 34 -9 8 -25 15 -37 15 -42 0 -67 12 -67 31
0 21 114 139 135 139 7 0 26 7 42 15 15 7 50 24 76 36 26 12 74 46 105 75 75
72 124 87 201 59 24 -8 75 -19 114 -25 40 -5 85 -13 100 -16 26 -6 28 -4 25
17 -4 30 -29 42 -192 91 -178 54 -204 69 -299 162 -92 91 -131 122 -170 131
-24 6 -26 11 -21 41 7 44 -8 68 -59 98 -52 30 -110 38 -158 23z m139 -711 c17
-1 32 -4 32 -8 0 -13 -123 -110 -129 -101 -8 10 -72 33 -94 33 -24 0 -21 13
11 42 44 41 64 49 107 41 22 -3 55 -7 73 -7z m-175 -113 c-7 -2 -19 -2 -25 0
-7 3 -2 5 12 5 14 0 19 -2 13 -5z m54 -9 c-3 -3 -12 -4 -19 -1 -8 3 -5 6 6 6
11 1 17 -2 13 -5z m-4262 -813 c-22 -43 -38 -49 -18 -7 9 20 20 36 25 36 5 0
2 -13 -7 -29z m2947 -720 c11 -31 4 -38 -45 -46 -85 -13 -96 -16 -91 -30 7
-17 -8 -26 -26 -14 -10 6 -11 9 -2 9 6 0 12 5 12 11 0 6 -7 9 -15 5 -26 -10
-74 5 -81 26 -3 11 -4 21 -2 23 7 8 194 42 217 40 15 -1 28 -11 33 -24z m-312
-47 c13 -33 12 -34 -36 -40 -64 -7 -94 -15 -94 -25 0 -5 -18 -9 -39 -9 -22 0
-43 -4 -46 -10 -3 -5 -35 -10 -70 -10 -35 0 -66 -4 -70 -10 -3 -5 -13 -6 -21
-3 -8 3 -25 1 -37 -5 -29 -14 -74 -24 -117 -26 -19 -1 -40 -5 -45 -8 -6 -4
-42 -9 -80 -13 -39 -3 -77 -8 -85 -10 -8 -2 -31 -7 -50 -10 -19 -3 -42 -8 -50
-10 -59 -17 -506 -88 -550 -88 -39 0 -49 -2 -35 -8 14 -6 5 -7 -28 -5 -45 4
-70 -6 -45 -18 7 -3 -6 -3 -29 0 -29 4 -43 2 -43 -6 0 -6 -4 -9 -9 -6 -13 9
-227 -48 -361 -96 -93 -32 -415 -102 -437 -94 -7 3 -13 1 -13 -5 0 -6 -4 -8
-8 -5 -5 3 -24 1 -43 -4 -19 -5 -52 -12 -74 -14 -22 -2 -49 -7 -61 -11 -17 -5
-27 4 -62 57 -23 35 -48 71 -55 81 -38 48 -29 -11 14 -94 16 -31 29 -59 29
-62 0 -3 -13 -8 -28 -12 -47 -10 -36 -35 14 -35 39 0 44 -3 50 -27 4 -15 18
-43 32 -62 13 -20 66 -119 118 -221 107 -211 168 -326 208 -388 15 -24 25 -51
22 -59 -7 -18 22 -83 36 -80 10 2 308 -569 308 -591 0 -22 42 -92 55 -92 8 0
15 -5 15 -11 0 -6 -6 -9 -13 -6 -7 3 -22 -15 -37 -45 l-24 -49 -21 43 c-11 24
-31 70 -44 103 -12 33 -28 69 -34 80 -6 11 -35 67 -65 125 -30 58 -81 148
-112 200 -84 138 -110 187 -110 205 0 8 -6 18 -14 21 -8 3 -16 18 -19 33 -3
16 -12 35 -20 42 -7 8 -32 48 -54 89 -22 41 -57 104 -77 138 -20 35 -36 65
-36 67 0 2 -38 66 -84 142 -46 76 -100 170 -119 210 -20 39 -41 74 -47 78 -5
3 -10 16 -10 28 0 11 -11 32 -24 46 -30 32 -108 179 -101 191 4 7 30 12 135
26 14 2 75 13 135 24 273 48 349 61 485 80 80 11 168 23 195 26 28 3 61 7 75
9 14 2 42 4 63 4 24 1 36 5 32 11 -4 7 2 9 18 5 14 -4 27 -2 31 3 3 5 16 7 30
5 13 -3 33 0 45 6 16 9 21 9 21 -1 0 -7 5 -6 13 4 13 17 74 27 94 15 6 -4 24
0 39 8 16 9 49 15 74 15 47 -1 85 4 117 14 10 3 47 8 83 11 35 3 78 8 94 11
32 5 139 21 216 31 25 3 50 9 56 14 10 8 208 40 248 40 11 0 28 5 39 10 10 6
51 13 91 15 39 2 87 6 106 8 19 2 59 5 88 7 28 1 52 6 52 10 0 4 24 9 53 11
159 9 146 11 157 -18z m346 -97 c5 -28 9 -59 9 -67 1 -8 4 -22 7 -30 24 -59
15 -85 -64 -175 -9 -11 -26 -31 -38 -45 -19 -23 -21 -24 -33 -8 -15 20 -69
219 -69 255 0 13 -5 23 -11 23 -6 0 -8 3 -4 6 3 4 0 19 -8 35 -8 15 -12 30 -7
32 4 3 41 8 82 12 41 4 84 11 95 15 29 11 32 6 41 -53z m-172 -309 l48 -52
-93 -91 c-105 -101 -197 -199 -278 -295 -65 -78 -290 -303 -346 -347 -22 -18
-85 -77 -140 -131 l-100 -99 -47 65 -48 66 22 23 c21 23 21 23 35 3 18 -26 63
-27 63 -2 0 11 11 21 32 27 17 6 36 18 42 28 9 15 6 23 -19 45 l-30 27 47 43
c34 32 52 42 66 37 24 -7 62 36 62 69 0 13 23 44 60 79 33 32 57 63 54 69 -4
6 -2 8 3 5 6 -4 32 13 59 38 26 25 53 44 58 44 37 -4 47 1 36 21 -11 20 -13
17 93 128 22 23 44 42 49 42 5 0 6 5 3 10 -3 6 -2 10 4 10 11 0 103 82 164
148 22 23 43 42 46 42 4 0 28 -23 55 -52z m234 -175 c28 -74 53 -174 47 -190
-3 -10 -39 -34 -78 -54 -40 -20 -71 -42 -69 -49 1 -6 -2 -8 -8 -5 -16 10 -212
-124 -331 -227 -30 -26 -61 -48 -67 -48 -6 0 -20 -12 -32 -27 -12 -16 -43 -50
-68 -78 -169 -180 -354 -444 -436 -620 -51 -108 -108 -257 -112 -291 -2 -19
-11 -51 -19 -72 -18 -45 -61 -228 -70 -297 -4 -27 -9 -103 -10 -168 -3 -106
-1 -121 16 -138 20 -20 26 -34 10 -25 -5 3 -8 -8 -7 -25 2 -32 56 -98 83 -100
27 -3 32 -4 39 -12 4 -4 8 -20 9 -35 3 -53 18 -137 28 -162 6 -14 9 -31 8 -37
-1 -7 3 -13 8 -13 6 0 15 -19 22 -42 20 -78 74 -201 131 -302 32 -56 38 -77
34 -105 -17 -113 -37 -257 -47 -336 -15 -120 -98 -498 -113 -512 -3 -3 -8 8
-12 23 -3 16 -13 54 -21 84 -9 34 -18 145 -24 294 -5 132 -11 242 -14 244 -10
10 -16 -5 -26 -67 -10 -53 -13 -59 -24 -45 -23 32 -31 8 -21 -65 9 -64 6 -89
-28 -263 -20 -106 -44 -223 -52 -260 l-15 -67 -30 11 c-34 12 -34 12 -14 163
54 400 66 517 63 619 -5 169 -13 160 -102 -104 -13 -41 -50 -147 -80 -235 -30
-88 -70 -209 -88 -270 l-34 -109 -56 105 -56 106 125 254 c214 435 294 631
269 656 -19 20 -298 -369 -436 -608 l-59 -101 -35 69 c-19 39 -48 93 -65 122
-17 28 -31 59 -31 68 0 36 204 363 226 363 9 0 30 11 48 25 18 14 39 25 47 25
8 1 31 15 52 33 36 31 38 35 31 74 -3 22 -16 52 -28 67 l-21 26 -109 -15
c-119 -16 -125 -14 -152 37 -8 15 -35 51 -60 79 l-45 50 33 41 c18 23 40 52
48 64 8 12 23 33 34 48 41 58 34 339 -11 388 -12 13 -13 18 -3 18 8 0 4 8 -9
19 -13 12 -18 22 -11 26 19 12 10 38 -22 67 -32 27 -32 29 -14 41 11 7 65 57
120 113 56 55 174 169 263 254 90 84 165 161 168 172 4 10 12 18 18 19 7 0 30
23 52 50 22 27 46 55 53 63 6 8 12 19 12 24 0 5 9 12 20 15 13 3 18 11 14 20
-3 10 1 17 13 20 14 4 13 5 -5 6 -13 1 -20 5 -17 11 4 6 16 10 28 8 14 -2 21
2 19 10 -1 8 6 16 17 19 11 3 27 20 36 39 9 18 24 38 35 44 22 12 32 22 85 86
83 100 437 460 625 634 147 137 280 271 280 283 0 18 19 5 28 -20z m-3443 -83
c10 -25 33 -65 51 -90 17 -25 45 -72 62 -105 44 -88 196 -316 283 -425 42 -52
104 -142 139 -200 34 -58 76 -127 93 -155 35 -59 64 -110 125 -225 25 -47 85
-152 134 -233 48 -82 86 -152 83 -156 -2 -5 -37 -2 -77 6 -40 8 -100 13 -133
12 -80 -2 -81 -2 -62 19 15 17 15 22 0 70 -11 33 -22 51 -29 48 -11 -4 -24 28
-29 74 -1 8 -13 40 -28 71 -15 31 -27 63 -27 72 0 9 -5 19 -10 22 -6 4 -8 10
-6 14 4 6 -66 154 -114 241 -8 14 -15 31 -16 39 -2 8 -18 37 -36 65 -18 28
-38 58 -43 67 -116 190 -328 412 -475 497 -30 17 -61 35 -68 40 -10 7 -4 23
23 73 20 35 39 76 42 91 3 15 15 38 27 50 12 13 30 36 40 52 20 32 25 29 51
-34z m-798 -359 c57 -11 132 -34 167 -50 36 -16 67 -27 70 -24 3 3 12 3 21 -1
15 -5 14 -9 -2 -38 -10 -18 -21 -34 -25 -36 -4 -2 -12 -20 -18 -40 -19 -60
-43 -112 -52 -112 -4 0 -8 -9 -8 -19 0 -11 -4 -21 -9 -23 -5 -1 -11 -19 -14
-39 -2 -20 -16 -61 -29 -90 -14 -30 -31 -69 -39 -88 -8 -19 -27 -61 -44 -93
-138 -273 -315 -627 -321 -643 -5 -16 -10 -10 -19 30 -24 99 -36 135 -44 135
-4 0 -11 -55 -14 -121 -3 -67 -8 -124 -11 -126 -3 -3 -13 -2 -23 2 -10 5 -21
8 -24 7 -3 0 -3 12 -1 29 2 17 0 29 -7 29 -6 0 -8 -8 -5 -17 5 -16 4 -16 -10
1 -8 10 -17 23 -19 29 -1 5 -8 8 -15 6 -9 -3 -7 -11 5 -29 22 -31 25 -51 11
-67 -6 -7 -8 -22 -5 -34 4 -15 2 -19 -9 -15 -8 3 -14 1 -14 -3 0 -5 7 -11 15
-15 8 -3 15 -17 15 -31 0 -19 -5 -25 -21 -25 -11 0 -17 -4 -14 -10 3 -5 0 -10
-7 -10 -10 0 -9 -3 2 -9 10 -7 1 -11 -30 -14 l-45 -4 46 -1 c32 -1 49 -7 53
-18 10 -26 7 -89 -5 -101 -8 -8 -6 -11 7 -10 21 2 22 -30 1 -48 -7 -6 -13 -17
-15 -25 -1 -8 14 4 34 28 48 56 64 55 64 -4 0 -37 -3 -45 -15 -40 -16 6 -17 3
-111 -148 l-49 -79 -7 119 c-29 481 -28 477 -42 463 -4 -4 -45 -339 -71 -584
-36 -339 -29 -308 -89 -415 -30 -53 -74 -141 -99 -194 -25 -54 -47 -94 -50
-89 -3 4 -19 65 -36 135 -18 70 -53 192 -78 270 -25 79 -54 171 -65 206 -18
55 -29 71 -96 132 -42 39 -82 70 -90 70 -8 0 -55 -35 -106 -78 -125 -106 -232
-192 -240 -192 -3 0 -6 6 -6 14 0 8 -5 16 -10 18 -11 3 -80 200 -80 228 0 10
-13 55 -30 101 -28 81 -60 251 -60 324 0 29 4 36 25 41 14 3 22 10 20 15 -3 4
-13 5 -21 2 -14 -5 -15 -3 -5 15 10 18 9 22 -4 22 -16 0 -18 10 -15 100 2 95
26 233 49 285 5 11 14 38 20 61 12 44 62 115 89 126 15 6 15 7 -2 7 -15 1 -17
6 -12 33 3 17 13 39 21 48 8 9 20 31 26 48 6 18 15 32 20 32 5 0 9 5 9 12 0
37 210 271 275 305 17 9 51 34 76 57 55 49 237 153 276 158 15 2 33 8 38 15
16 19 200 83 267 93 35 5 83 14 108 19 25 5 142 8 260 6 168 -3 238 -8 317
-24z m5044 -119 c-7 -2 -18 1 -23 6 -8 8 -4 9 13 5 13 -4 18 -8 10 -11z m107
-16 c8 -5 46 -11 85 -12 127 -4 318 -39 360 -67 21 -14 45 -21 111 -33 34 -6
84 -30 111 -54 11 -9 52 -36 91 -58 39 -23 85 -54 102 -70 17 -16 33 -25 34
-20 2 6 10 2 18 -8 9 -11 10 -15 3 -10 -7 4 -13 2 -13 -3 0 -10 13 -15 32 -12
4 0 9 -8 13 -18 12 -39 14 -61 4 -61 -6 0 -7 -5 -4 -11 4 -6 13 -8 20 -5 22 8
178 -228 200 -304 4 -14 20 -61 35 -105 83 -233 105 -369 103 -615 -1 -107 -3
-208 -6 -225 -3 -16 -5 -43 -6 -60 l-1 -30 -20 31 c-18 27 -21 59 -30 270 -5
131 -14 273 -20 314 -14 98 -30 170 -39 170 -4 0 -13 -78 -20 -172 -7 -95 -19
-258 -27 -363 -7 -104 -23 -280 -34 -390 -40 -408 -43 -423 -87 -452 l-21 -14
0 618 c0 558 -9 871 -28 941 -4 12 -12 22 -19 22 -14 0 -13 7 -36 -495 -8
-187 -14 -253 -24 -261 -25 -19 -152 -704 -184 -998 -6 -49 -12 -91 -15 -93
-5 -6 -15 367 -21 837 -2 217 -9 451 -14 520 -6 69 -15 195 -21 280 -13 192
-33 328 -59 400 -11 30 -20 50 -20 44 -9 -137 -23 -491 -31 -784 -18 -671 -31
-908 -70 -1230 -6 -47 -13 -111 -17 -143 -5 -51 -10 -60 -34 -73 -23 -11 -29
-12 -29 -2 1 7 -2 171 -4 363 l-6 350 35 130 c49 182 104 496 105 593 0 38 -4
53 -12 50 -7 -2 -42 -61 -77 -130 -36 -70 -69 -124 -73 -122 -4 3 -8 60 -8
127 0 128 -17 476 -26 515 -8 38 -24 14 -24 -35 0 -25 -7 -105 -15 -177 -15
-133 -45 -446 -66 -679 -11 -126 -12 -131 -68 -250 -32 -67 -75 -166 -97 -219
-21 -54 -42 -98 -45 -98 -3 0 -14 37 -23 83 -30 140 -85 365 -121 486 -18 64
-37 133 -40 154 -5 24 -25 60 -57 98 -27 32 -46 59 -41 59 4 0 19 3 32 7 21 5
23 3 16 -18 -5 -18 -4 -20 4 -9 5 8 20 15 33 15 55 3 118 18 117 29 -3 26 2
46 12 46 5 0 7 -5 3 -11 -4 -8 0 -8 15 0 24 13 29 0 6 -19 -8 -6 -20 -8 -26
-4 -8 4 -9 3 -5 -4 9 -14 36 -16 36 -2 0 5 7 7 15 4 28 -11 16 30 -14 51 -17
11 -28 21 -27 23 2 1 25 -2 51 -8 41 -9 49 -8 61 7 21 29 16 33 -21 17 -46
-19 -62 -18 -68 6 -3 11 -13 20 -22 20 -9 0 -13 5 -10 10 4 6 1 17 -5 25 -7 8
-9 23 -4 37 6 20 5 21 -10 9 -14 -12 -16 -11 -16 3 0 9 -5 16 -11 16 -5 0 -7
-4 -4 -10 3 -5 -4 -10 -16 -10 -19 0 -20 2 -8 16 12 15 11 16 -7 10 -17 -5
-24 0 -37 31 -17 40 -25 67 -32 104 -2 12 -11 40 -19 63 -15 40 -86 270 -91
290 -1 6 -10 38 -20 71 -10 33 -20 67 -21 75 -2 8 -7 31 -13 50 -15 47 -66
267 -85 360 -9 41 -20 89 -25 107 -7 23 -6 35 3 42 18 15 252 51 364 56 23 1
45 5 49 9 10 10 76 4 91 -8z m2210 -28 c7 -6 12 -34 12 -67 0 -47 -4 -58 -21
-70 -20 -12 -21 -18 -15 -101 4 -49 13 -112 22 -140 8 -28 14 -66 12 -83 -3
-27 -10 -15 -46 78 -24 61 -43 126 -44 145 0 19 -1 71 -2 114 -1 54 -5 81 -13
83 -23 8 -14 39 15 50 28 11 58 8 80 -9z m-6859 -40 c77 -44 111 -70 105 -80
-3 -4 1 -8 8 -8 16 0 179 -161 221 -216 15 -21 27 -43 27 -50 0 -10 83 -131
99 -144 30 -24 133 -229 126 -250 -3 -10 0 -20 9 -23 16 -6 24 -23 82 -162 45
-107 62 -135 80 -135 8 0 14 -8 14 -19 0 -18 -31 -35 -57 -32 -7 1 -13 -3 -13
-9 0 -5 4 -10 10 -10 5 0 9 -3 9 -7 -3 -20 3 -23 21 -13 19 10 20 8 20 -56 0
-65 -1 -67 -19 -50 -12 11 -21 14 -26 7 -3 -6 1 -11 10 -11 9 0 14 -4 10 -9
-3 -5 4 -16 16 -25 20 -13 20 -17 8 -32 -11 -13 -11 -18 -1 -21 14 -5 17 -49
3 -57 -5 -3 -14 -43 -21 -88 -6 -46 -14 -90 -18 -98 -3 -8 -7 -33 -7 -55 -2
-33 -18 -172 -30 -264 -2 -13 -7 -27 -12 -30 -4 -3 -8 -21 -8 -39 1 -30 -1
-33 -25 -28 -25 6 -25 6 3 -9 15 -9 27 -18 27 -22 0 -5 -30 -47 -100 -137 -8
-11 -33 -39 -54 -63 l-39 -44 -19 28 c-10 15 -43 71 -73 124 -44 78 -55 106
-55 142 0 25 4 48 8 51 5 3 6 20 4 38 -5 30 -3 32 12 19 11 -9 16 -10 16 -2 0
6 -7 14 -16 18 -19 7 -16 67 12 343 19 187 23 537 7 565 -11 19 -12 18 -23
-10 -7 -17 -18 -45 -26 -63 -8 -18 -18 -61 -24 -95 -46 -312 -99 -591 -125
-665 -3 -9 -32 21 -73 74 -96 124 -119 150 -129 141 -4 -5 10 -59 31 -121 21
-62 36 -118 32 -124 -3 -6 4 -23 17 -39 13 -15 34 -54 47 -86 24 -58 24 -58 7
-135 -26 -118 -51 -210 -59 -217 -4 -4 -38 55 -76 132 -39 76 -86 165 -106
198 -31 52 -36 69 -36 122 0 57 11 86 24 64 10 -15 97 -61 116 -61 25 0 43 26
36 52 -6 25 -73 68 -106 68 -24 0 -61 18 -72 34 -4 6 -8 33 -8 60 0 122 -40
343 -59 331 -5 -2 -14 -77 -21 -165 -7 -88 -16 -162 -20 -165 -4 -2 -27 8 -51
24 -24 15 -49 26 -55 24 -6 -2 -18 4 -26 14 -12 14 -16 47 -19 148 -3 180 -4
179 29 192 l27 12 -30 -2 c-27 -2 -32 2 -46 42 -21 60 -37 63 -41 9 -3 -41 -6
-44 -55 -69 -48 -24 -142 -54 -129 -41 10 9 -25 41 -39 36 -20 -8 7 74 49 150
18 34 39 79 46 101 7 22 37 87 68 145 30 58 77 149 103 202 27 54 75 141 108
195 58 97 120 207 209 373 46 87 61 110 70 110 2 0 30 -14 61 -32z m6623 -70
c-8 -8 -12 -9 -12 -1 0 6 -3 20 -6 30 -7 17 -6 17 12 1 14 -14 16 -20 6 -30z
m-2674 -35 c80 -213 143 -396 212 -613 53 -169 82 -250 133 -370 22 -52 42
-106 44 -120 9 -63 10 -105 3 -129 -4 -16 -2 -34 7 -47 11 -18 11 -23 0 -32
-11 -9 -19 -6 -37 13 -13 14 -29 25 -35 25 -10 0 -622 -609 -699 -696 -37 -43
-37 -54 0 -54 24 0 293 159 514 304 79 52 146 94 147 92 5 -5 62 -204 92 -321
17 -66 62 -232 100 -368 l70 -248 -46 -109 c-25 -61 -49 -110 -54 -110 -5 0
-11 10 -13 23 -3 12 -7 34 -10 48 -3 14 -10 57 -16 95 -58 407 -73 484 -90
484 -6 0 -10 -49 -10 -118 0 -66 -3 -206 -7 -313 l-6 -194 -34 -1 c-40 -1 -36
-16 -64 226 -21 187 -30 243 -69 448 -37 189 -44 150 -50 -266 -3 -203 -7
-372 -10 -375 -3 -2 -24 4 -47 14 l-43 18 0 143 c0 137 -16 449 -26 496 -9 42
-24 22 -24 -32 0 -30 -9 -117 -20 -194 -12 -77 -20 -144 -18 -148 1 -5 -2 -53
-6 -108 l-8 -98 -29 6 c-15 3 -38 15 -50 27 -20 20 -20 21 -1 15 15 -5 23 1
37 30 19 41 18 45 -10 33 -11 -4 -14 -8 -7 -8 23 -2 13 -31 -10 -31 -19 0 -20
2 -8 10 9 6 10 10 3 10 -6 0 -19 -10 -27 -22 -13 -18 -18 -19 -31 -8 -12 10
-15 36 -15 124 -1 113 -13 242 -25 254 -15 15 -22 -29 -28 -175 -3 -85 -8
-158 -11 -161 -8 -8 -68 41 -171 139 -14 13 -27 49 -39 109 -19 93 -36 110
-36 36 0 -23 -3 -45 -6 -49 -7 -6 -124 137 -124 152 0 5 -4 11 -8 13 -24 9
-127 189 -162 283 -4 11 -13 33 -19 48 -6 15 -11 37 -11 48 0 10 -4 27 -10 37
-11 20 -31 109 -31 136 0 10 11 31 24 45 45 48 58 86 51 148 -3 32 -8 61 -11
66 -2 4 0 14 6 21 11 13 30 131 36 220 5 79 47 225 76 268 11 14 19 36 19 49
0 12 11 36 23 53 13 17 39 58 57 91 18 33 53 81 79 106 l46 47 48 -25 c26 -13
87 -60 134 -103 47 -44 89 -80 94 -80 18 0 8 16 -18 32 -31 18 -69 51 -97 85
-18 22 -18 22 6 19 32 -3 50 -15 42 -28 -4 -7 -2 -8 5 -4 6 4 20 2 29 -4 9 -7
-12 15 -48 50 -36 34 -86 73 -112 86 -27 13 -48 30 -48 37 0 31 235 278 257
270 19 -7 63 24 63 46 0 23 21 42 94 80 72 38 81 38 94 4z m-1415 -35 c26 -29
47 -57 47 -62 0 -10 -25 -40 -108 -131 -21 -21 -52 -57 -71 -80 -46 -55 -163
-186 -238 -265 -34 -36 -71 -76 -82 -88 -12 -14 -25 -21 -32 -16 -8 4 -9 3 -5
-4 4 -8 0 -12 -11 -12 -15 0 -16 -2 -3 -10 12 -8 12 -10 -3 -15 -27 -11 -207
-196 -252 -260 -26 -37 -44 -55 -56 -55 -5 0 -8 5 -6 11 1 6 -4 14 -12 17 -10
3 -11 0 -5 -9 4 -8 -6 -3 -23 11 -17 14 -40 41 -50 60 -10 19 -21 37 -25 38
-31 14 46 132 85 132 9 0 17 7 17 15 0 8 8 19 18 24 17 9 44 37 208 211 49 52
94 96 101 98 7 2 13 -11 16 -30 3 -25 4 -23 3 10 0 43 2 46 153 198 84 85 157
154 162 154 8 0 16 -35 23 -105 2 -22 4 -8 4 30 1 110 1 115 12 115 6 0 15
-11 20 -25 14 -37 18 -31 13 23 l-4 47 26 -30 c14 -16 30 -36 36 -43 23 -28
20 -2 -5 41 -23 39 -25 57 -7 57 3 0 27 -23 54 -52z m4131 -34 c40 -34 56 -56
64 -87 14 -55 73 -217 106 -290 19 -43 26 -74 26 -122 l0 -65 -36 0 c-79 0
-179 -48 -222 -107 l-21 -28 -10 26 c-5 15 -20 29 -33 33 -13 3 -38 26 -55 51
-26 35 -33 55 -34 92 -1 69 -13 138 -23 138 -5 0 -17 -27 -25 -60 -14 -53 -19
-60 -39 -57 -13 2 -22 -2 -22 -10 0 -23 -73 -133 -78 -117 -2 8 -17 42 -33 77
-16 34 -29 67 -29 72 0 6 -4 10 -10 10 -5 0 -10 10 -10 23 0 12 -6 34 -14 48
-7 14 -16 38 -20 53 -6 24 -4 27 13 21 28 -9 78 20 85 50 6 23 26 36 26 16 0
-5 12 -24 26 -41 24 -28 31 -31 66 -25 51 9 100 38 171 100 51 45 57 54 57 90
0 22 -5 58 -10 80 -7 32 -6 43 7 57 9 10 18 18 20 18 2 0 28 -21 57 -46z
m1144 -17 l-3 -22 -13 23 c-8 13 -11 31 -7 40 6 16 7 16 16 -1 6 -10 9 -28 7
-40z m-7 -290 c-8 -8 -16 -6 -29 7 -16 17 -16 19 6 33 12 9 23 23 24 32 1 9 3
-1 5 -23 3 -21 0 -43 -6 -49z m-101 28 c0 -17 -32 -65 -40 -60 -14 9 -12 52 3
58 17 7 37 8 37 2z m167 -47 c15 -19 23 -72 13 -88 -13 -22 -36 3 -49 55 -15
61 -15 68 7 56 10 -5 23 -16 29 -23z m-268 -266 c11 -189 23 -288 52 -402 38
-150 88 -327 113 -399 14 -41 26 -78 26 -83 0 -15 -21 -8 -27 10 -8 24 -105
122 -120 122 -7 0 -13 4 -13 9 0 5 -14 24 -30 41 -23 24 -35 52 -47 107 -17
75 -14 94 10 74 23 -18 47 -2 47 31 0 40 -17 68 -41 68 -18 0 -20 4 -15 33 14
81 18 155 7 161 -6 4 -11 22 -11 39 0 18 -7 50 -15 72 -8 22 -14 62 -15 89 0
54 -27 174 -42 193 -8 9 -2 22 21 45 17 17 33 39 36 49 3 10 14 19 23 21 21 4
28 -39 41 -280z m-359 233 c19 -20 26 -47 40 -147 28 -197 39 -245 86 -388 56
-171 61 -212 39 -281 -10 -30 -20 -58 -23 -63 -6 -11 -18 27 -68 209 -19 72
-48 164 -63 205 -16 41 -35 109 -44 150 -8 41 -18 86 -21 100 -3 14 -12 54
-20 90 -21 88 -20 95 11 125 34 31 34 31 63 0z m519 -98 c12 -32 25 -687 13
-687 -14 0 -82 244 -98 350 -24 158 -6 333 43 430 l18 35 6 -50 c4 -27 12 -63
18 -78z m-4211 34 c39 -30 40 -37 6 -36 -14 0 -34 10 -45 23 -10 13 -24 21
-31 17 -7 -4 -4 1 6 9 11 9 14 16 8 16 -7 0 -12 5 -12 11 0 10 4 8 68 -40z
m-93 29 c3 -5 1 -10 -4 -10 -6 0 -11 5 -11 10 0 6 2 10 4 10 3 0 8 -4 11 -10z
m3462 -183 c12 -28 38 -90 57 -137 50 -119 50 -121 -23 -95 -23 8 -48 12 -57
8 -13 -5 -15 13 -13 136 1 77 5 141 8 141 3 0 16 -24 28 -53z m906 -12 l29
-45 -12 -105 c-6 -59 -8 -149 -4 -203 4 -62 2 -107 -5 -125 -13 -33 -35 -26
-27 8 3 12 2 69 -3 126 -16 174 -24 389 -15 389 5 0 22 -20 37 -45z m-683 -10
c10 -26 17 -62 40 -200 7 -38 16 -79 20 -90 14 -31 40 -114 40 -126 0 -5 22
-67 50 -137 27 -70 52 -139 56 -154 10 -42 -10 -33 -23 10 -15 53 -51 147 -73
196 -24 50 -60 164 -60 189 0 10 -6 24 -13 32 -14 13 -27 71 -45 195 -6 36
-13 75 -17 88 -10 31 13 29 25 -3z m-4865 -45 c-5 -8 -11 -8 -17 -2 -6 6 -7
16 -3 22 5 8 11 8 17 2 6 -6 7 -16 3 -22z m5631 -72 c4 -7 9 -125 10 -263 1
-137 5 -298 8 -357 4 -66 2 -108 -4 -108 -14 0 -16 13 -40 365 -11 155 -13
359 -3 368 10 10 21 8 29 -5z m-1056 -98 c0 -58 -1 -60 -26 -60 -16 0 -24 5
-22 13 2 6 10 33 18 60 8 26 18 47 22 47 4 0 8 -27 8 -60z m607 -48 c14 -81
16 -162 4 -162 -4 0 -15 24 -24 53 -8 28 -25 84 -36 122 -26 86 -22 105 16 75
22 -17 30 -35 40 -88z m-318 19 c31 -96 23 -122 -12 -35 -27 71 -34 104 -19
104 5 0 19 -31 31 -69z m1348 -39 c-9 -37 -23 -107 -32 -157 -9 -49 -20 -110
-26 -135 -26 -122 -41 -278 -48 -510 -5 -142 -13 -267 -20 -283 -6 -15 -21
-31 -34 -36 -34 -13 -43 -28 -63 -105 -11 -38 -24 -71 -31 -73 -12 -4 -33 77
-33 131 0 19 16 72 35 120 54 134 104 359 76 342 -6 -4 -11 -13 -11 -20 0 -7
-9 -21 -20 -31 -18 -17 -31 -47 -44 -107 -14 -61 -23 -22 -20 80 7 176 44 312
152 559 18 39 32 82 32 95 0 14 7 48 16 77 11 38 21 54 40 61 14 6 24 18 24
29 0 28 13 58 18 43 2 -7 -3 -43 -11 -80z m-976 31 c18 -37 19 -136 2 -121
-12 10 -23 44 -38 116 -8 41 16 45 36 5z m-6316 -85 c7 -7 -12 -27 -70 -79
-17 -14 -43 -41 -58 -60 -23 -28 -29 -31 -37 -19 -14 22 -12 97 3 121 10 17 9
22 -5 33 -13 10 0 12 72 11 49 0 91 -3 95 -7z m-431 -20 c-3 -4 -9 -8 -15 -8
-5 0 -9 4 -9 8 0 5 7 9 15 9 8 0 12 -4 9 -9z m496 2 c0 -5 -4 -10 -9 -10 -6 0
-13 5 -16 10 -3 6 1 10 9 10 9 0 16 -4 16 -10z m5972 -137 c58 -149 91 -250
85 -266 -7 -21 -46 69 -93 215 -25 77 -48 147 -51 154 -3 8 -1 14 4 14 4 0 29
-53 55 -117z m-239 72 c-7 -21 -13 -19 -13 6 0 11 4 18 10 14 5 -3 7 -12 3
-20z m117 -63 c0 -26 -23 -102 -30 -102 -26 0 -64 112 -45 132 10 9 75 -17 75
-30z m-5725 7 c13 -13 13 -251 0 -256 -6 -2 -28 36 -50 83 -22 48 -48 97 -57
110 -17 21 -17 23 9 53 23 26 33 30 58 25 16 -3 34 -10 40 -15z m242 -14 c18
-8 33 -19 33 -25 0 -29 -55 -114 -110 -169 -33 -34 -62 -61 -65 -61 -11 0 4
199 16 220 38 65 48 68 126 35z m-2317 -9 c0 -8 -4 -17 -9 -21 -12 -7 -24 12
-16 25 9 15 25 12 25 -4z m190 2 c-1 -31 -34 -47 -44 -22 -4 11 -2 15 8 11 10
-4 13 -1 9 9 -3 8 1 14 11 14 9 0 16 -6 16 -12z m-90 -40 c0 -10 -9 -9 -35 2
-17 8 -16 8 8 7 15 -1 27 -5 27 -9z m-30 -18 c0 -5 -5 -10 -11 -10 -5 0 -7 5
-4 10 3 6 8 10 11 10 2 0 4 -4 4 -10z m7788 -48 c26 -71 50 -147 47 -150 -2
-2 -22 -1 -44 3 -39 6 -40 8 -40 43 0 62 11 154 17 147 3 -3 12 -22 20 -43z
m-7668 -1 c0 -15 -3 -55 -6 -89 -8 -68 -13 -70 -69 -16 -35 33 -95 56 -146 57
-22 0 -25 4 -21 29 2 15 10 28 17 28 7 0 21 3 31 7 10 3 15 2 12 -3 -9 -13 13
-40 39 -46 12 -3 24 -1 26 5 4 14 76 55 100 56 12 1 17 -7 17 -28z m7322 -116
c-3 -118 -6 -141 -39 -242 -20 -62 -39 -111 -41 -108 -3 2 -5 109 -4 237 l1
233 28 6 c59 14 58 15 55 -126z m1059 -53 c11 -109 8 -194 -6 -180 -5 5 -22
115 -30 193 -3 33 -3 85 1 115 6 49 8 52 15 27 4 -15 13 -85 20 -155z m-1183
-149 l-5 -318 -37 -100 c-53 -144 -47 -133 -54 -115 -3 8 -36 80 -75 160 -38
80 -84 177 -102 215 l-32 70 5 130 c4 97 9 136 21 152 9 12 21 23 26 23 10 0
35 -67 35 -96 0 -19 34 -78 63 -111 20 -23 61 -30 83 -15 22 13 45 116 51 220
3 56 10 102 16 102 6 0 8 -115 5 -317z m860 216 c25 -126 88 -322 138 -431 53
-114 66 -164 42 -156 -11 4 -118 275 -158 403 -59 188 -69 228 -63 256 l6 30
12 -25 c7 -13 17 -48 23 -77z m-5727 31 c18 -33 18 -36 2 -47 -9 -7 -30 -13
-46 -13 -16 0 -60 -7 -98 -17 -49 -12 -77 -14 -101 -7 l-33 10 58 39 c92 64
119 76 161 73 33 -3 42 -8 57 -38z m-2524 -5 c0 -18 -19 -15 -25 3 -2 7 3 12
11 12 7 0 14 -7 14 -15z m48 -25 c3 -6 -1 -7 -9 -4 -18 7 -21 14 -7 14 6 0 13
-4 16 -10z m1816 -31 c41 -17 85 -34 99 -38 21 -6 15 -10 -42 -26 -40 -10 -82
-15 -103 -12 -21 3 -33 2 -30 -4 4 -5 -4 -9 -17 -8 -13 0 -18 3 -11 5 8 4 9
14 3 35 -6 21 -5 33 6 43 8 8 14 19 14 25 0 15 -3 15 81 -20z m5879 10 c0 -11
-6 -44 -14 -72 -8 -29 -17 -64 -20 -79 -12 -55 -21 -27 -18 55 3 56 9 88 20
100 20 23 32 22 32 -4z m55 1 c4 -12 0 -26 -9 -36 -19 -18 -20 -38 -5 -66 15
-28 2 -133 -14 -119 -17 13 -16 183 1 189 7 2 10 13 6 28 -7 29 12 33 21 4z
m-7657 -57 c-21 -26 -80 -1 -63 27 9 15 25 12 19 -4 -3 -8 -1 -17 5 -21 7 -4
11 6 11 27 l0 33 20 -25 c13 -18 16 -28 8 -37z m-113 5 c17 -9 47 -19 67 -23
25 -5 38 -13 41 -27 4 -15 11 -19 24 -14 9 4 14 4 10 0 -4 -4 -3 -12 2 -18 11
-14 -3 -146 -17 -155 -5 -3 -19 -40 -30 -82 -31 -111 -138 -657 -153 -772 -6
-54 -14 -95 -18 -92 -3 3 -9 223 -12 488 -4 265 -11 537 -15 603 l-7 122 39
-7 c21 -4 53 -15 69 -23z m25 12 c0 -5 -2 -10 -4 -10 -3 0 -8 5 -11 10 -3 6
-1 10 4 10 6 0 11 -4 11 -10z m8668 -23 c48 -82 102 -267 102 -350 0 -24 -33
-91 -67 -136 -14 -20 -40 134 -57 339 -16 193 -14 207 22 147z m-548 4 c0 -11
-10 -37 -22 -58 -18 -30 -24 -34 -26 -19 -4 21 27 96 40 96 4 0 8 -9 8 -19z
m-5615 -33 c-2 -7 -6 -42 -9 -77 -3 -35 -7 -66 -9 -68 -3 -2 -19 10 -37 27
-30 28 -43 34 -62 31 -5 0 -8 4 -8 9 0 6 -9 10 -20 10 -11 0 -20 4 -20 8 0 4
-16 14 -35 21 -59 21 -45 32 60 44 77 10 144 7 140 -5z m5101 -130 c-19 -309
-27 -417 -37 -493 -5 -38 -16 -138 -24 -222 -8 -83 -21 -167 -29 -185 -14 -32
-14 -31 -16 57 -2 50 -1 133 0 185 2 52 4 158 5 235 2 123 7 156 38 275 19 74
41 163 47 198 7 34 15 62 18 62 3 0 2 -51 -2 -112z m-5623 80 c9 -25 -85 -128
-157 -173 -19 -11 -31 -26 -29 -35 2 -8 -2 -4 -8 10 -6 14 -20 42 -31 63 -11
21 -18 40 -16 41 2 1 24 19 50 40 36 29 60 39 102 45 31 4 59 11 63 14 10 11
21 8 26 -5z m5874 -43 c53 -30 59 -45 44 -107 -16 -63 -60 -168 -72 -168 -4 0
-11 5 -14 10 -9 15 -45 12 -45 -4 0 -8 5 -36 11 -63 10 -44 8 -56 -20 -137
-17 -49 -31 -100 -31 -112 0 -13 -9 -28 -19 -34 -27 -14 -34 -13 -28 5 4 8 2
17 -3 20 -6 4 -10 -7 -10 -24 0 -16 -5 -33 -11 -37 -8 -4 -9 1 -4 16 5 15 4
20 -4 16 -7 -4 -11 1 -11 13 0 12 -4 21 -10 21 -5 0 -10 -5 -10 -11 0 -6 -5
-9 -12 -7 -8 3 -11 27 -10 72 2 71 7 90 23 81 5 -4 9 7 9 22 0 49 34 68 64 37
9 -8 16 -12 17 -7 4 63 20 232 30 320 13 118 22 133 62 109 11 -6 35 -20 54
-31z m297 -22 c18 -62 80 -231 120 -325 9 -21 15 -38 13 -38 -2 0 -25 32 -51
70 -27 39 -51 70 -55 70 -7 0 -10 16 -20 127 0 7 -7 10 -15 7 -9 -4 -15 9 -19
48 -15 125 -2 144 27 41z m-8428 -155 c-11 -336 -28 -581 -51 -738 -7 -52 -17
-117 -20 -145 -11 -89 -14 -95 -46 -95 l-29 0 0 304 0 303 29 99 c28 95 73
275 85 339 17 96 28 145 33 145 3 0 3 -96 -1 -212z m570 139 c13 -13 26 -7 21
8 -4 8 -1 17 5 21 7 4 8 3 4 -4 -4 -7 -1 -12 8 -12 31 0 23 -97 -78 -919 -15
-126 -25 -176 -35 -179 -12 -4 -13 77 -8 554 4 308 7 560 7 560 0 4 70 -23 76
-29z m2889 13 c3 -5 2 -10 -4 -10 -5 0 -13 5 -16 10 -3 6 -2 10 4 10 5 0 13
-4 16 -10z m-1163 -42 c1 -24 3 -64 4 -90 2 -50 -15 -86 -34 -74 -15 9 -16
160 -2 187 17 31 30 22 32 -23z m6381 -130 l94 -153 17 -128 c24 -183 13 -201
-35 -57 -22 63 -39 123 -39 132 0 10 -29 77 -64 150 -77 160 -96 205 -89 212
11 10 21 -4 116 -156z m179 -141 l-21 -62 4 165 c2 91 5 167 6 170 1 3 9 -44
17 -103 15 -105 15 -109 -6 -170z m583 216 c-17 -145 -62 -303 -86 -303 -16 0
34 251 65 325 22 51 29 43 21 -22z m-1249 -56 c-20 -94 -33 -130 -46 -122 -6
4 -8 10 -6 14 3 4 7 18 10 32 15 66 35 139 41 149 15 25 16 -1 1 -73z m-5711
18 c22 -18 27 -27 18 -36 -16 -16 -5 -39 20 -39 20 0 20 0 1 -15 -31 -24 -93
-38 -109 -25 -20 16 -28 64 -19 113 5 34 8 38 15 22 7 -19 8 -19 8 3 1 26 13
22 66 -23z m-480 -180 c25 -30 50 -55 55 -55 5 0 21 -5 37 -12 15 -6 31 -11
36 -10 10 3 9 -12 -7 -77 -8 -31 -22 -93 -32 -139 l-18 -83 -92 -52 c-58 -32
-97 -61 -104 -77 -21 -44 -182 -300 -189 -300 -12 0 -105 172 -104 191 2 26
64 169 73 169 4 0 6 8 4 18 -6 26 19 67 41 67 20 0 74 60 75 83 0 6 4 12 9 12
5 0 14 15 21 33 8 17 19 39 25 47 7 8 20 39 29 69 10 30 28 69 42 86 13 18 24
44 24 58 0 41 23 33 75 -28z m6490 -80 c21 -71 40 -137 43 -145 3 -10 2 -12
-5 -5 -15 15 -73 192 -80 245 -3 25 -3 43 -1 40 3 -3 23 -63 43 -135z m-5820
106 c-3 -10 1 -24 10 -31 8 -7 15 -9 16 -4 0 5 5 -2 10 -16 7 -18 12 -21 18
-12 6 10 19 3 49 -25 42 -40 54 -60 28 -50 -9 4 -12 0 -9 -12 4 -15 -4 -20
-41 -25 -25 -4 -48 -11 -51 -17 -4 -5 -10 -7 -14 -5 -4 3 -17 -3 -28 -13 -11
-11 -29 -21 -39 -23 -12 -2 -24 -18 -32 -45 -17 -54 -40 -63 -67 -26 -71 98
-150 176 -132 131 16 -40 122 -360 151 -457 l34 -115 -65 -108 c-37 -59 -69
-108 -73 -108 -4 0 -42 27 -84 61 -77 61 -114 72 -102 29 3 -11 9 -29 12 -40
6 -23 -3 -25 -42 -10 -25 10 -26 13 -22 75 2 35 7 67 10 70 3 4 53 -21 109
-54 124 -73 143 -77 133 -23 -10 59 -39 113 -138 254 l-92 130 13 142 c8 77
17 157 21 176 l7 35 60 1 c138 2 143 3 178 34 19 17 42 30 50 30 9 0 30 12 48
27 18 16 41 27 51 25 10 -2 18 2 18 7 0 6 3 11 6 11 3 0 3 -8 -1 -19z m-3579
-48 c9 -32 25 -80 34 -108 10 -27 39 -120 65 -205 26 -85 51 -166 56 -179 10
-24 3 -43 -9 -25 -4 5 -29 26 -55 44 -27 19 -56 48 -64 63 -11 22 -17 26 -28
17 -11 -9 -26 1 -74 48 -34 32 -61 66 -61 75 0 9 -8 21 -18 26 -19 10 -112
142 -112 158 0 7 225 139 242 142 4 1 15 -25 24 -56z m9955 -172 c-11 -75 -2
-174 25 -269 17 -62 17 -65 -1 -99 l-20 -36 -13 34 c-8 19 -18 92 -23 164 -5
71 -13 155 -18 185 -8 50 -6 61 23 124 l31 68 3 -52 c2 -29 -1 -82 -7 -119z
m-951 64 c-7 -8 -8 -20 -4 -27 5 -10 4 -10 -6 -1 -10 9 -10 15 -2 26 7 8 8 18
4 22 -4 5 -1 5 6 1 10 -6 10 -11 2 -21z m-345 -77 c-3 -51 -6 -175 -7 -275 -1
-101 -3 -183 -4 -183 -6 0 -76 144 -84 171 -4 15 -4 47 1 73 9 52 89 306 95
306 3 0 2 -42 -1 -92z m385 59 c0 -15 -29 -57 -30 -42 0 6 3 20 6 33 7 24 24
31 24 9z m605 -64 c9 -32 20 -70 25 -85 5 -15 5 -30 0 -33 -8 -5 -70 139 -70
163 0 6 7 12 15 12 9 0 20 -21 30 -57z m753 -45 c52 -80 69 -165 46 -238 -4
-10 -11 -7 -27 14 l-22 28 -20 -39 -20 -38 -3 85 c-3 112 -8 124 -32 80 -16
-29 -19 -31 -20 -13 0 25 27 161 36 174 11 18 22 8 62 -53z m-1149 -18 c31
-17 78 -50 105 -75 46 -41 52 -52 91 -172 30 -91 40 -133 33 -145 -5 -10 -12
-18 -16 -18 -20 1 -75 66 -102 121 -18 34 -63 112 -101 175 -73 119 -86 144
-74 144 4 0 33 -14 64 -30z m606 -85 c11 -67 12 -98 4 -132 -6 -23 -15 -43
-19 -43 -4 0 -12 50 -18 110 -9 82 -9 117 0 135 6 14 13 23 15 21 2 -2 11 -43
18 -91z m-1063 70 c0 -5 -5 -11 -11 -13 -6 -2 -11 4 -11 13 0 9 5 15 11 13 6
-2 11 -8 11 -13z m-5272 -15 c0 -9 -23 -15 -45 -10 -5 1 -6 -2 -2 -7 5 -4 14
-8 20 -8 6 0 14 -10 17 -22 3 -13 21 -31 40 -42 35 -18 36 -18 105 4 39 13 72
22 73 20 5 -5 -119 -165 -127 -165 -3 0 -36 50 -73 110 -66 108 -67 111 -45
120 30 12 37 12 37 0z m-1390 -79 c0 -6 -4 -13 -10 -16 -5 -3 -10 1 -10 9 0 9
5 16 10 16 6 0 10 -4 10 -9z m6043 -48 c9 -27 30 -86 47 -133 39 -106 43 -121
31 -139 -15 -23 -44 20 -85 124 -31 80 -34 95 -26 135 5 25 9 48 10 53 1 18
10 3 23 -40z m791 -30 c-7 -26 -33 -38 -40 -20 -3 8 0 26 6 42 9 25 13 27 25
14 8 -8 12 -23 9 -36z m805 -22 c14 -49 62 -304 57 -308 -6 -7 -66 144 -66
166 0 11 -7 50 -16 87 -15 65 -14 94 4 94 5 0 14 -18 21 -39z m-8070 -58 c10
-36 9 -48 -4 -73 -8 -16 -18 -30 -20 -30 -3 0 -5 37 -5 82 0 86 8 92 29 21z
m3136 -196 l47 -187 -16 -118 c-24 -163 -56 -335 -65 -345 -9 -9 -17 84 -31
398 -6 127 -14 287 -18 357 l-7 128 21 -23 c15 -15 36 -80 69 -210z m4664 187
c14 -30 19 -50 12 -57 -15 -15 -28 0 -35 39 -4 19 -10 42 -13 50 -3 8 -1 14 4
14 5 0 19 -21 32 -46z m-521 -51 c-11 -54 -21 -69 -38 -58 -9 6 -8 10 4 17 10
6 15 18 12 34 -3 13 -1 22 3 19 5 -2 11 4 14 15 10 40 14 18 5 -27z m1173
-106 c-6 -16 -11 -51 -11 -77 0 -45 -18 -79 -33 -63 -4 3 -7 42 -7 85 0 62 6
92 28 145 l27 68 3 -64 c2 -35 -2 -77 -7 -94z m-7204 88 c4 -2 -46 -248 -87
-430 -34 -153 -58 -235 -70 -235 -4 0 -26 49 -48 108 l-42 109 86 234 c47 129
87 240 90 247 3 10 12 8 36 -9 18 -12 34 -23 35 -24z m5949 -5 c0 -11 -6 -20
-13 -20 -7 0 -13 -5 -13 -12 0 -6 -2 -9 -5 -6 -8 7 13 58 23 58 4 0 8 -9 8
-20z m376 -50 c101 -70 138 -84 138 -54 0 14 3 14 15 4 18 -15 19 -21 2 -44
-13 -18 -16 -17 -56 8 -24 15 -81 45 -127 66 -73 34 -84 43 -84 65 0 14 2 25
5 25 3 0 51 -31 107 -70z m1184 -17 c-2 -10 -7 -33 -11 -50 -5 -24 -12 -33
-27 -33 -11 0 -18 3 -16 8 2 4 13 26 24 49 19 42 40 60 30 26z m-10693 -91 c9
-14 -30 -528 -39 -519 -4 3 -22 130 -49 332 -8 61 -15 150 -15 199 l0 89 48
-44 c26 -23 51 -49 55 -57z m2440 -10 c-14 -34 -29 -62 -33 -62 -7 0 -30 45
-30 60 0 9 81 72 87 67 2 -2 -9 -31 -24 -65z m6744 6 c-3 -8 -6 -5 -6 6 -1 11
2 17 5 13 3 -3 4 -12 1 -19z m-32 -184 c-15 -77 -36 -170 -47 -209 l-21 -70
-22 65 c-26 77 -22 94 56 255 27 55 50 107 50 115 1 12 2 12 6 -1 2 -9 -8 -79
-22 -155z m269 67 c25 -87 26 -95 11 -111 -16 -17 -15 -20 8 -35 45 -29 42
-65 -12 -181 -27 -57 -52 -104 -56 -104 -3 0 -3 78 0 172 6 195 16 361 20 356
1 -2 15 -45 29 -97z m1242 45 c-7 -42 -10 -46 -44 -56 -51 -14 -62 -13 -62 7
0 17 28 53 41 53 4 0 20 12 34 26 14 14 29 24 32 21 3 -4 2 -26 -1 -51z
m-5306 -33 c0 -30 -16 -30 -24 1 -3 13 -9 32 -13 43 -6 17 -5 17 15 -1 12 -11
22 -30 22 -43z m4450 -8 c14 -19 14 -19 -2 -6 -10 7 -18 18 -18 24 0 6 1 8 3
6 1 -2 9 -13 17 -24z m-9615 -2 l35 -17 -1 -180 c-1 -100 -4 -194 -8 -211 l-7
-30 -7 30 c-9 41 -57 381 -57 405 0 24 0 24 45 3z m10062 -5 c-3 -8 -6 -5 -6
6 -1 11 2 17 5 13 3 -3 4 -12 1 -19z m-6458 -25 c10 -21 35 -87 56 -146 l37
-109 -33 -49 c-19 -27 -36 -49 -39 -49 -3 1 -36 46 -74 102 l-70 102 50 93
c27 51 50 93 51 93 2 0 11 -17 22 -37z m5991 16 c0 -5 -4 -9 -10 -9 -5 0 -10
7 -10 16 0 8 5 12 10 9 6 -3 10 -10 10 -16z m-6404 -136 l43 -138 -36 -65
c-20 -36 -45 -78 -55 -95 l-18 -30 0 95 c0 130 12 381 18 375 3 -2 24 -66 48
-142z m5286 51 c29 -74 34 -110 17 -134 -9 -13 -10 -13 -6 0 2 8 -2 21 -10 28
-7 7 -13 26 -13 41 0 15 -8 36 -18 47 -10 10 -19 36 -20 57 -4 59 19 42 50
-39z m-6035 -30 l31 -86 -21 -59 c-12 -32 -26 -58 -31 -56 -5 2 -24 37 -42 79
l-33 75 26 66 c14 37 29 67 32 67 3 0 20 -39 38 -86z m8009 50 c-3 -9 -6 -22
-6 -29 0 -16 -21 -29 -63 -39 -27 -6 -28 -5 -25 26 3 28 8 34 43 44 54 17 58
16 51 -2z m-5063 -37 c-3 -5 4 -6 16 -2 26 8 26 13 -3 -158 -22 -124 -36 -176
-36 -136 0 8 -7 72 -15 144 -8 72 -15 145 -15 163 l0 33 29 -17 c17 -10 27
-22 24 -27z m223 -85 c21 -17 21 -18 6 -126 -17 -120 -25 -118 -36 9 -4 44 -9
92 -12 108 -7 32 10 36 42 9z m4798 -124 c-13 -73 -24 -139 -24 -145 0 -17
-31 -17 -53 0 -16 11 -16 21 -5 117 11 92 15 108 39 133 15 15 36 27 46 27 19
0 19 -4 -3 -132z m-344 40 c-1 -31 -1 -32 -15 -14 -19 25 -19 46 0 46 10 0 15
-10 15 -32z m-4208 -45 c-7 -36 -12 -27 -11 20 0 30 3 36 8 23 4 -11 6 -30 3
-43z m251 -26 c-7 -47 -13 -46 -13 2 0 23 4 40 9 37 5 -4 7 -21 4 -39z m3997
-22 c0 -8 -4 -15 -10 -15 -5 0 -10 7 -10 15 0 8 5 15 10 15 6 0 10 -7 10 -15z"/>
<path d="M4349 4108 c-7 -29 -5 -36 7 -31 16 6 18 19 4 28 -5 3 -10 5 -11 3z"/>
<path d="M2356 3377 c3 -10 9 -15 12 -12 3 3 0 11 -7 18 -10 9 -11 8 -5 -6z"/>
<path d="M2421 3184 c0 -11 3 -14 6 -6 3 7 2 16 -1 19 -3 4 -6 -2 -5 -13z"/>
<path d="M2750 2430 c0 -5 5 -10 11 -10 5 0 7 5 4 10 -3 6 -8 10 -11 10 -2 0
-4 -4 -4 -10z"/>
<path d="M2526 2071 c-4 -6 -4 -22 0 -36 5 -19 12 -25 28 -23 31 4 30 62 -1
66 -11 2 -24 -1 -27 -7z"/>
<path d="M1975 2011 c-8 -15 3 -31 21 -31 9 0 14 7 12 17 -4 20 -24 28 -33 14z"/>
<path d="M8458 2618 c-16 -29 -21 -75 -7 -61 10 10 31 83 23 83 -2 0 -9 -10
-16 -22z"/>
<path d="M8350 2443 c-17 -23 -27 -43 -21 -43 5 0 19 16 31 35 12 19 28 35 36
35 8 0 14 4 14 8 0 23 -32 4 -60 -35z"/>
<path d="M8305 2379 c-11 -17 1 -21 15 -4 8 9 8 15 2 15 -6 0 -14 -5 -17 -11z"/>
<path d="M8336 2354 c-10 -37 -2 -39 11 -4 6 17 8 30 3 30 -4 0 -11 -12 -14
-26z"/>
<path d="M8276 2328 c-8 -32 -7 -40 3 -34 11 7 21 56 11 56 -4 0 -10 -10 -14
-22z"/>
<path d="M8357 1793 c-13 -12 -7 -23 12 -23 10 0 21 7 25 15 5 15 -24 22 -37
8z"/>
<path d="M4315 2360 c-3 -5 -1 -10 6 -10 8 0 9 -3 0 -14 -8 -10 -8 -16 3 -25
11 -9 16 -9 21 -1 5 8 28 10 64 7 31 -2 51 -3 44 0 -7 2 -9 11 -6 20 5 13 1
15 -20 11 -15 -3 -24 -1 -21 3 3 5 2 9 -3 10 -4 0 -25 2 -45 5 -20 2 -39 0
-43 -6z"/>
<path d="M4347 2214 c3 -7 9 -14 14 -14 14 0 10 17 -5 23 -10 4 -13 1 -9 -9z"/>
<path d="M4450 2208 c0 -19 2 -20 10 -8 13 19 13 30 0 30 -5 0 -10 -10 -10
-22z"/>
<path d="M3350 2200 c-8 -5 -12 -11 -9 -14 2 -3 11 -1 19 4 8 5 12 11 9 14 -2
3 -11 1 -19 -4z"/>
<path d="M4265 1750 c-4 -6 -3 -16 3 -22 6 -6 12 -6 17 2 4 6 3 16 -3 22 -6 6
-12 6 -17 -2z"/>
<path d="M7460 2686 c0 -2 7 -7 16 -10 8 -3 12 -2 9 4 -6 10 -25 14 -25 6z"/>
<path d="M7692 2455 c21 -21 41 -35 45 -31 4 5 2 11 -5 13 -6 3 -10 9 -6 14 3
5 -3 9 -12 9 -10 0 -27 8 -38 17 -12 9 -4 0 16 -22z"/>
<path d="M7776 2460 c21 -16 44 -30 50 -30 6 0 19 -9 29 -20 10 -11 22 -20 27
-20 5 0 -4 11 -20 25 -17 14 -33 25 -37 25 -5 0 -23 11 -41 25 -18 14 -36 25
-40 25 -4 0 10 -13 32 -30z"/>
<path d="M7757 2399 c7 -7 15 -10 18 -7 3 3 -2 9 -12 12 -14 6 -15 5 -6 -5z"/>
<path d="M7910 2366 c0 -2 7 -7 16 -10 8 -3 12 -2 9 4 -6 10 -25 14 -25 6z"/>
<path d="M7856 2345 c4 -8 11 -15 16 -15 6 0 5 6 -2 15 -7 8 -14 15 -16 15 -2
0 -1 -7 2 -15z"/>
<path d="M7920 2320 c0 -7 -7 -10 -17 -6 -10 3 -4 -5 12 -19 17 -14 35 -25 40
-25 6 0 2 5 -7 11 -9 5 -15 16 -12 23 3 8 1 17 -5 21 -6 3 -11 1 -11 -5z"/>
<path d="M10811 1334 c0 -11 3 -14 6 -6 3 7 2 16 -1 19 -3 4 -6 -2 -5 -13z"/>
<path d="M10801 1224 c0 -11 3 -14 6 -6 3 7 2 16 -1 19 -3 4 -6 -2 -5 -13z"/>
<path d="M4527 1066 c-4 -10 -1 -13 8 -9 8 3 12 9 9 14 -7 12 -11 11 -17 -5z"/>
<path d="M12199 4418 c-5 -13 -16 -35 -24 -49 -22 -40 -35 -152 -23 -191 19
-60 23 -63 69 -63 l44 0 5 47 c4 27 13 53 22 60 13 10 17 32 19 99 2 99 -3
113 -37 105 -14 -4 -33 -2 -44 4 -17 9 -22 7 -31 -12z"/>
<path d="M12112 3747 c-15 -64 -15 -81 -1 -129 11 -43 35 -50 63 -19 17 19 15
81 -4 126 -5 11 -10 31 -12 45 -6 48 -32 34 -46 -23z"/>
<path d="M12118 3492 c-43 -45 -51 -70 -44 -130 10 -84 35 -114 65 -78 6 7 25
16 41 19 36 8 43 30 33 115 -7 56 -12 65 -39 82 l-30 20 -26 -28z"/>
<path d="M12546 2313 c-3 -71 -9 -170 -12 -220 -3 -62 -2 -93 5 -93 7 0 11 28
12 73 0 75 4 157 13 290 3 42 1 77 -3 77 -5 0 -12 -57 -15 -127z"/>
<path d="M12502 2210 c0 -14 2 -19 5 -12 2 6 2 18 0 25 -3 6 -5 1 -5 -13z"/>
</g>
</svg>
